inDegrees=yes
name=ik_S53_A12_T01
DataType=double
version=3
OpenSimVersion=4.3-2021-08-27-4bc7ad9
endheader
time	pelvis_tilt	pelvis_list	pelvis_rotation	pelvis_tx	pelvis_ty	pelvis_tz	hip_flexion_r	hip_adduction_r	hip_rotation_r	knee_angle_r	knee_angle_r_beta	ankle_angle_r	subtalar_angle_r	mtp_angle_r	hip_flexion_l	hip_adduction_l	hip_rotation_l	knee_angle_l	knee_angle_l_beta	ankle_angle_l	subtalar_angle_l	mtp_angle_l	lumbar_extension	lumbar_bending	lumbar_rotation	arm_flex_r	arm_add_r	arm_rot_r	elbow_flex_r	pro_sup_r	wrist_flex_r	wrist_dev_r	arm_flex_l	arm_add_l	arm_rot_l	elbow_flex_l	pro_sup_l	wrist_flex_l	wrist_dev_l
10.77999999999986	-1.364460156409693	1.270844737662899	34.86221871847177	0	0.9399999999999999	0	31.97890920101101	-9.492906264344141	-8.885658964843204	35.39415322119876	0.6177445096652753	0	0	0	31.97890920101101	-9.492906264344141	-8.885658964843204	35.39415322119876	0.6177445096652753	0	0	0	0.1416964433373606	1.638320303879755	7.405543310202218	7.354344737909224	-6.182594809136338	-7.133025443587835	3.966262046061549	120.0622990261108	0	0	91.61546821918789	-7.40494530560747	27.94502706140439	27.97940864306134	74.15488470739184	0	0
10.79999999999986	-1.362087523280607	1.271400717839391	34.90168068460596	0	0.9399999999999999	0	31.99635229950367	-9.494637125442758	-8.888453685583487	35.41342818394234	0.6180809212283499	0	0	0	31.99635229950367	-9.494637125442758	-8.888453685583487	35.41342818394234	0.6180809212283499	0	0	0	0.1431149328409778	1.637860311829266	7.417254815262874	7.342817402125023	-6.187293520561427	-7.133124314915006	3.982758040352039	120.0293715956795	0	0	91.61320733773925	-7.371833544504439	27.98482379034844	27.93122863802797	74.12053437836779	0	0
10.81999999999986	-1.36025233345441	1.273955482904842	34.93323921378465	0	0.9399999999999999	0	32.01816093053802	-9.496571193227787	-8.891769367454197	35.43774823942648	0.6185053862708157	0	0	0	32.01816093053802	-9.496571193227787	-8.891769367454197	35.43774823942648	0.6185053862708157	0	0	0	0.145186168370871	1.639317944224748	7.42169022225052	7.333409240355661	-6.178920586636537	-7.117252909641067	3.958919316861783	120.0062977351539	0	0	91.61920196919695	-7.369327067726706	27.95759173893275	27.92617598452292	74.14116061492491	0	0
10.83999999999986	-1.365207515930711	1.276095795530058	34.9685965132388	0	0.9399999999999999	0	32.03905893128182	-9.498463782873612	-8.894975431913741	35.46102298829221	0.6189116072710976	0	0	0	32.03905893128182	-9.498463782873612	-8.894975431913741	35.46102298829221	0.6189116072710976	0	0	0	0.1415070400429794	1.644309090231993	7.425105970339605	7.339457545224256	-6.183479948428073	-7.095168735207412	3.954776302473421	119.9945378635976	0	0	91.64187566716794	-7.359030470695057	27.91143371336219	27.8768953297012	74.19947098393084	0	0
10.85999999999986	-1.373307773858939	1.274650559459205	34.99713226487125	0	0.9399999999999999	0	32.05634658707423	-9.500120568668962	-8.897697610454657	35.48019247585751	0.6192461779450322	0	0	0	32.05634658707423	-9.500120568668962	-8.897697610454657	35.48019247585751	0.6192461779450322	0	0	0	0.1334315313740422	1.64803988619775	7.423754686096624	7.342303797746992	-6.192147558562289	-7.080630596098149	3.972340294253396	120.0054735178281	0	0	91.68686118177111	-7.351850381368964	27.88453257513709	27.76481329250114	74.27432643598191	0	0
10.87999999999986	-1.376703622468893	1.272565388436704	35.03107974694993	0	0.9399999999999999	0	32.07066968337403	-9.501543103528848	-8.899990290943324	35.49603261540697	0.6195226405341456	0	0	0	32.07066968337403	-9.501543103528848	-8.899990290943324	35.49603261540697	0.6195226405341456	0	0	0	0.1287682814109806	1.648642847693885	7.432901383305879	7.345131544184625	-6.205367878308181	-7.127707777347315	3.982739663238283	120.0090123164831	0	0	91.70221517251544	-7.343534082892538	27.90892699397601	27.68076479148624	74.2636104811896	0	0
10.89999999999986	-1.379392683712671	1.279410252984617	35.05073182704529	0	0.9399999999999999	0	32.08493153050701	-9.50283143489008	-8.902173069603526	35.51193189534749	0.6198001353178042	0	0	0	32.08493153050701	-9.50283143489008	-8.902173069603526	35.51193189534749	0.6198001353178042	0	0	0	0.1300108179929955	1.655977810760561	7.431372092562617	7.341443543460112	-6.211961767683789	-7.097472896802762	3.966535204299345	119.9978531719453	0	0	91.67414769150091	-7.373284568467966	27.94351859020331	27.68390309409586	74.26262023808555	0	0
